<svg width="48" height="48" viewBox="0 0 48 48" fill="none" xmlns="http://www.w3.org/2000/svg">
    <path d="M4 12C4 7.58172 7.58172 4 12 4H16C17.1046 4 18 4.89543 18 6C18 7.10457 17.1046 8 16 8H12C9.79086 8 8 9.79086 8 12V16C8 17.1046 7.10457 18 6 18C4.89543 18 4 17.1046 4 16V12Z" fill="white"/>
    <path d="M44 12C44 7.58172 40.4183 4 36 4H32C30.8954 4 30 4.89543 30 6C30 7.10457 30.8954 8 32 8H36C38.2091 8 40 9.79086 40 12V16C40 17.1046 40.8954 18 42 18C43.1046 18 44 17.1046 44 16V12Z" fill="white"/>
    <path d="M4 36C4 40.4183 7.58172 44 12 44H16C17.1046 44 18 43.1046 18 42C18 40.8954 17.1046 40 16 40H12C9.79086 40 8 38.2091 8 36V32C8 30.8954 7.10457 30 6 30C4.89543 30 4 30.8954 4 32V36Z" fill="white"/>
    <path d="M44 36C44 40.4183 40.4183 44 36 44H32C30.8954 44 30 43.1046 30 42C30 40.8954 30.8954 40 32 40H36C38.2091 40 40 38.2091 40 36V32C40 30.8954 40.8954 30 42 30C43.1046 30 44 30.8954 44 32V36Z" fill="white"/>
    <path d="M15.914 17.5241L22.8889 14V23.2406C22.5888 23.3238 22.295 23.4412 22.0124 23.5929L14 27.8943V20.7624C14 19.3761 14.7457 18.1145 15.914 17.5241Z" fill="white"/>
    <path d="M25.1111 23.2406C25.4112 23.3238 25.705 23.4412 25.9876 23.5929L34 27.8943V20.7624C34 19.3761 33.2543 18.1145 32.086 17.5241L25.1111 14V23.2406Z" fill="white"/>
    <path d="M23.0062 25.727L15.4003 29.8101L23.4149 33.8596C23.5979 33.952 23.7977 34 24 34C24.2023 34 24.4021 33.952 24.5851 33.8596L32.5997 29.8101L24.9938 25.727C24.3682 25.3911 23.6318 25.3911 23.0062 25.727Z" fill="white"/>
    </svg>
    