<svg width="32" height="32" viewBox="0 0 32 32" fill="none" xmlns="http://www.w3.org/2000/svg">
<path d="M14.6666 9.3335H15.1666V8.8335H14.6666V9.3335ZM9.33325 9.3335V8.8335H8.83325V9.3335H9.33325ZM14.6666 14.6668V15.1668H15.1666V14.6668H14.6666ZM9.33325 14.6668H8.83325V15.1668H9.33325V14.6668ZM14.6666 17.3335H15.1666V16.8335H14.6666V17.3335ZM9.33325 17.3335V16.8335H8.83325V17.3335H9.33325ZM14.6666 22.6668V23.1668H15.1666V22.6668H14.6666ZM9.33325 22.6668H8.83325V23.1668H9.33325V22.6668ZM22.6666 17.3335H23.1666V16.8335H22.6666V17.3335ZM17.3333 17.3335V16.8335H16.8333V17.3335H17.3333ZM22.6666 22.6668V23.1668H23.1666V22.6668H22.6666ZM17.3333 22.6668H16.8333V23.1668H17.3333V22.6668ZM22.6666 9.3335H23.1666V8.8335H22.6666V9.3335ZM17.3333 9.3335V8.8335H16.8333V9.3335H17.3333ZM22.6666 14.6668V15.1668H23.1666V14.6668H22.6666ZM17.3333 14.6668H16.8333V15.1668H17.3333V14.6668ZM14.6666 8.8335H9.33325V9.8335H14.6666V8.8335ZM15.1666 14.6668V9.3335H14.1666V14.6668H15.1666ZM9.33325 15.1668H14.6666V14.1668H9.33325V15.1668ZM8.83325 9.3335V14.6668H9.83325V9.3335H8.83325ZM14.6666 16.8335H9.33325V17.8335H14.6666V16.8335ZM15.1666 22.6668V17.3335H14.1666V22.6668H15.1666ZM9.33325 23.1668H14.6666V22.1668H9.33325V23.1668ZM8.83325 17.3335V22.6668H9.83325V17.3335H8.83325ZM22.6666 16.8335H17.3333V17.8335H22.6666V16.8335ZM23.1666 22.6668V17.3335H22.1666V22.6668H23.1666ZM17.3333 23.1668H22.6666V22.1668H17.3333V23.1668ZM16.8333 17.3335V22.6668H17.8333V17.3335H16.8333ZM22.6666 8.8335H17.3333V9.8335H22.6666V8.8335ZM23.1666 14.6668V9.3335H22.1666V14.6668H23.1666ZM17.3333 15.1668H22.6666V14.1668H17.3333V15.1668ZM16.8333 9.3335V14.6668H17.8333V9.3335H16.8333Z" fill="#232830"/>
</svg>
