<svg width="38" height="38" viewBox="0 0 38 38" fill="none" xmlns="http://www.w3.org/2000/svg">
<g id="Components/Icons/Alerts/bulb">
<path id="Combined Shape" fill-rule="evenodd" clip-rule="evenodd" d="M12.6668 25.222C8.88075 23.032 6.3335 18.9384 6.3335 14.25C6.3335 7.25439 12.0046 1.58333 19.0002 1.58333C25.9958 1.58333 31.6668 7.25439 31.6668 14.25C31.6668 18.9384 29.1196 23.032 25.3335 25.222V25.3332C25.3335 28.8311 22.4979 31.6665 19.0002 31.6665C15.5024 31.6665 12.6668 28.8311 12.6668 25.3332V25.222ZM15.8335 33.25V33.2601C15.8335 35.0091 17.2512 36.4268 19.0002 36.4268C20.7491 36.4268 22.1668 35.0091 22.1668 33.2601V33.25C21.2354 33.7888 20.1538 34.0972 19.0002 34.0972C17.8465 34.0972 16.765 33.7888 15.8335 33.25Z" fill="#171717"/>
</g>
</svg>
