<svg width="48" height="48" viewBox="0 0 48 48" fill="none" xmlns="http://www.w3.org/2000/svg">
    <path d="M16 4C11.5817 4 8 7.58172 8 12V18.2918C8 19.8069 7.14399 21.1919 5.78885 21.8695L5.10557 22.2111C4.428 22.5499 4 23.2425 4 24C4 24.7575 4.428 25.4501 5.10557 25.7889L5.78886 26.1305C7.14399 26.8081 8 28.1931 8 29.7082V36C8 40.4183 11.5817 44 16 44H19C20.1046 44 21 43.1046 21 42C21 40.8954 20.1046 40 19 40H16C13.7909 40 12 38.2091 12 36V29.7082C12 27.5272 11.1131 25.4809 9.60535 24C11.1131 22.5191 12 20.4728 12 18.2918V12C12 9.79086 13.7909 8 16 8H19C20.1046 8 21 7.10457 21 6C21 4.89543 20.1046 4 19 4H16Z" fill="white"/>
    <path d="M32 4C36.4183 4 40 7.58172 40 12V18.2918C40 19.8069 40.856 21.1919 42.2111 21.8695L42.8944 22.2111C43.572 22.5499 44 23.2425 44 24C44 24.7575 43.572 25.4501 42.8944 25.7889L42.2111 26.1305C40.856 26.8081 40 28.1931 40 29.7082V36C40 40.4183 36.4183 44 32 44H29C27.8954 44 27 43.1046 27 42C27 40.8954 27.8954 40 29 40H32C34.2091 40 36 38.2091 36 36V29.7082C36 27.5272 36.8869 25.4809 38.3946 24C36.8869 22.5191 36 20.4728 36 18.2918V12C36 9.79086 34.2091 8 32 8H29C27.8954 8 27 7.10457 27 6C27 4.89543 27.8954 4 29 4H32Z" fill="white"/>
    </svg>
    