<svg width="48" height="48" viewBox="0 0 48 48" fill="none" xmlns="http://www.w3.org/2000/svg">
    <path d="M22.0017 28C22.0017 24.6863 24.688 22 28.0017 22C31.3154 22 34.0017 24.6863 34.0017 28C34.0017 31.3137 31.3154 34 28.0017 34C24.688 34 22.0017 31.3137 22.0017 28Z" fill="white"/>
    <path fill-rule="evenodd" clip-rule="evenodd" d="M31.0056 13.1713C29.3307 11.6096 26.6727 11.6096 24.9978 13.1713C24.04 14.0643 22.7083 14.4814 21.3888 14.3015C19.0815 13.987 16.9311 15.4928 16.5284 17.7051C16.2982 18.9702 15.4751 20.0621 14.298 20.6641C12.2394 21.7168 11.4181 24.1534 12.4415 26.1713C13.0267 27.3252 13.0267 28.6749 12.4415 29.8288C11.4181 31.8467 12.2394 34.2832 14.298 35.336C15.4751 35.9379 16.2982 37.0298 16.5284 38.2949C16.9311 40.5072 19.0815 42.0131 21.3888 41.6985C22.7083 41.5187 24.04 41.9357 24.9978 42.8288C26.6727 44.3905 29.3307 44.3905 31.0056 42.8288C31.9634 41.9357 33.2951 41.5187 34.6146 41.6985C36.9219 42.0131 39.0724 40.5072 39.475 38.2949C39.7052 37.0298 40.5283 35.9379 41.7054 35.336C43.764 34.2832 44.5854 31.8467 43.562 29.8288C42.9767 28.6749 42.9767 27.3252 43.562 26.1713C44.5854 24.1534 43.764 21.7168 41.7054 20.6641C40.5283 20.0621 39.7052 18.9702 39.475 17.7051C39.0724 15.4928 36.9219 13.987 34.6146 14.3015C33.2951 14.4814 31.9634 14.0643 31.0056 13.1713ZM28.0017 18C22.4789 18 18.0017 22.4772 18.0017 28C18.0017 33.5229 22.4789 38 28.0017 38C33.5246 38 38.0017 33.5229 38.0017 28C38.0017 22.4772 33.5246 18 28.0017 18Z" fill="white"/>
    <path d="M7.22543 19.2995C6.90471 18.3374 6.1497 17.5823 5.18754 17.2616C4.20832 16.9352 4.20832 15.5501 5.18754 15.2237C6.1497 14.903 6.90471 14.148 7.22544 13.1858C7.55184 12.2066 8.93692 12.2066 9.26333 13.1858C9.58405 14.148 10.3391 14.903 11.3012 15.2237C12.2804 15.5501 12.2804 16.9352 11.3012 17.2616C10.3391 17.5823 9.58405 18.3374 9.26333 19.2995C8.93692 20.2787 7.55184 20.2787 7.22543 19.2995Z" fill="white"/>
    <path d="M15.2254 11.2995C14.9047 10.3374 14.1497 9.58234 13.1875 9.26162C12.2083 8.93521 12.2083 7.55013 13.1875 7.22373C14.1497 6.903 14.9047 6.14799 15.2254 5.18583C15.5518 4.20661 16.9369 4.20661 17.2633 5.18583C17.5841 6.14799 18.3391 6.903 19.3012 7.22373C20.2804 7.55013 20.2804 8.93521 19.3012 9.26162C18.3391 9.58234 17.5841 10.3374 17.2633 11.2995C16.9369 12.2787 15.5518 12.2787 15.2254 11.2995Z" fill="white"/>
    </svg>
    