<svg width="48" height="48" viewBox="0 0 48 48" fill="none" xmlns="http://www.w3.org/2000/svg">
    <path fill-rule="evenodd" clip-rule="evenodd" d="M35.6791 12.461C33.7264 10.5084 30.5606 10.5084 28.608 12.461C26.6554 14.4136 26.6554 17.5795 28.608 19.5321C30.5606 21.4847 33.7264 21.4847 35.6791 19.5321C37.6317 17.5795 37.6317 14.4136 35.6791 12.461ZM31.4364 15.2894C31.827 14.8989 32.4601 14.8989 32.8506 15.2894C33.2412 15.68 33.2412 16.3131 32.8506 16.7037C32.4601 17.0942 31.827 17.0942 31.4364 16.7037C31.0459 16.3131 31.0459 15.68 31.4364 15.2894Z" fill="white"/>
    <path fill-rule="evenodd" clip-rule="evenodd" d="M42.7497 5.38979C42.4697 5.09891 42.1092 4.90197 41.7205 4.81973C39.8363 4.11238 36.6535 3.59428 31.8528 5.47181C28.4785 6.79149 24.3176 9.28805 19.2141 13.7066C18.6042 13.5242 17.9569 13.4505 17.3242 13.4518C16.1353 13.4543 14.8051 13.7186 13.4158 14.2455C10.6288 15.3026 7.46335 17.4673 4.44583 21.078C3.78182 21.8726 3.83407 23.0426 4.56626 23.7748C6.22383 25.4323 8.11683 25.6814 9.63641 25.5479C10.3356 25.4865 10.9861 25.3422 11.4578 25.2377L11.4925 25.23C11.7793 25.1664 11.9738 25.1258 12.1094 25.101C12.1578 25.1081 12.2067 25.1134 12.2559 25.1169C16.7336 25.4368 19.085 26.2731 20.4757 27.6638C21.8664 29.0545 22.7027 31.4059 23.0225 35.8836C23.0261 35.9336 23.0315 35.9832 23.0388 36.0323C23.014 36.1679 22.9735 36.362 22.9102 36.6476L22.9025 36.6823C22.7979 37.154 22.6537 37.8045 22.5922 38.5037C22.4587 40.0233 22.7078 41.9163 24.3654 43.5739C25.0976 44.306 26.2675 44.3583 27.0621 43.6943C30.6728 40.6768 32.8375 37.5113 33.8946 34.7243C34.4215 33.335 34.6858 32.0049 34.6883 30.816C34.6896 30.1829 34.6158 29.5352 34.4333 28.925C38.8516 23.8217 41.348 19.6609 42.6677 16.2867C44.5452 11.4859 44.0271 8.30321 43.3198 6.41895C43.2375 6.03026 43.0406 5.66977 42.7497 5.38979ZM14.251 18.3326C14.1072 18.4757 13.9628 18.6202 13.8177 18.766L11.4232 21.1604C11.1576 21.2064 10.9108 21.2614 10.7106 21.3061L10.6271 21.3247C10.1983 21.4197 9.83184 21.4989 9.47565 21.5431C11.2665 19.8379 12.9807 18.7617 14.4396 18.1441L14.251 18.3326ZM16.6595 21.581L16.604 21.6368C19.3574 22.178 21.6051 23.1363 23.3041 24.8353C25.0032 26.5344 25.9615 28.7821 26.5027 31.5355C33.9987 24.0865 37.4536 18.6367 38.9424 14.8298C40.206 11.5989 40.0573 9.54911 39.7536 8.38591C38.5904 8.0822 36.5406 7.93348 33.3097 9.19705C29.5816 10.6551 24.2779 13.9986 17.0639 21.1766L16.6595 21.581ZM29.9961 33.7005L26.9797 36.7169C26.9337 36.9825 26.8787 37.2293 26.834 37.4295L26.8154 37.513C26.7204 37.9418 26.6412 38.3083 26.597 38.6645C28.3022 36.8736 29.3784 35.1594 29.9961 33.7005Z" fill="white"/>
    <path fill-rule="evenodd" clip-rule="evenodd" d="M17.6012 27.6921C18.1522 27.8567 18.8442 28.1535 19.4154 28.7247C19.9866 29.2959 20.2834 29.9879 20.448 30.5389C20.6175 31.1061 20.6911 31.6747 20.7234 32.1426C20.7562 32.6184 20.7496 33.0463 20.7358 33.3525C20.7287 33.5075 20.7196 33.6359 20.7118 33.7293C20.7079 33.7761 20.7044 33.8144 20.7015 33.8432L20.6978 33.8791L20.6965 33.8916L20.6959 33.8964L20.6957 33.8984C20.6957 33.8988 20.6955 33.9002 18.7083 33.6744L20.6957 33.8984C20.6255 34.5169 20.271 35.0692 19.7373 35.3894C18.3156 36.2424 16.5072 36.8299 15.1687 37.195C14.4774 37.3835 13.8661 37.5245 13.4263 37.6188C13.2058 37.666 13.027 37.7018 12.9011 37.7262C12.8382 37.7384 12.7883 37.7477 12.753 37.7542L12.7111 37.7619L12.6986 37.7641L12.6924 37.7652C12.6921 37.7653 12.6919 37.7653 12.3443 35.7958C10.3832 35.4035 10.3832 35.4033 10.3832 35.4031L10.3844 35.3974L10.387 35.3845L10.3963 35.339C10.4043 35.3002 10.4159 35.2446 10.4308 35.1742C10.4608 35.0334 10.5043 34.833 10.5602 34.5882C10.6717 34.1001 10.8337 33.4286 11.0354 32.6993C11.236 31.9742 11.4825 31.1675 11.7656 30.4166C12.0367 29.6976 12.3895 28.8975 12.8382 28.2693C13.1675 27.8083 13.6769 27.5085 14.2399 27.4446L14.4656 29.4318C14.2399 27.4446 14.2395 27.4446 14.2399 27.4446L14.2437 27.4441L14.2485 27.4436L14.261 27.4423L14.2969 27.4386C14.3257 27.4357 14.364 27.4321 14.4108 27.4282C14.5041 27.4205 14.6326 27.4113 14.7875 27.4043C15.0938 27.3904 15.5217 27.3839 15.9975 27.4167C16.4654 27.4489 17.034 27.5226 17.6012 27.6921ZM15.6771 31.4043C15.6231 31.5322 15.5666 31.6734 15.5084 31.8278C15.3647 32.2089 15.2271 32.6243 15.0989 33.0464C15.6649 32.8664 16.2261 32.6629 16.7343 32.4396L16.7328 32.4175C16.7127 32.126 16.6719 31.8729 16.6154 31.6838C16.5999 31.632 16.5857 31.5933 16.5744 31.5657C16.5467 31.5543 16.5081 31.5402 16.4562 31.5247C16.2672 31.4682 16.0141 31.4273 15.7226 31.4073L15.6771 31.4043Z" fill="white"/>
    <path d="M12.3443 35.7958L12.6924 37.7652C12.0418 37.88 11.376 37.6662 10.9141 37.1938C10.4523 36.7214 10.2537 36.051 10.3832 35.4031L12.3443 35.7958Z" fill="white"/>
    </svg>
    