<svg width="569" height="760" viewBox="0 0 569 760" fill="none" xmlns="http://www.w3.org/2000/svg">
    <g opacity="0.07">
    <path d="M307.51 1013.43C294.389 1013.71 281.417 1010.62 269.831 1004.45L16.2782 858.074C11.5122 856.363 7.39089 853.222 4.47729 849.08C1.56369 844.938 0 839.998 0 834.934C0 829.87 1.56369 824.93 4.47729 820.788C7.39089 816.646 11.5122 813.505 16.2782 811.794L268.461 665.188C280.158 659.287 293.077 656.212 306.178 656.212C319.279 656.212 332.198 659.287 343.895 665.188L597.371 811.565C602.146 813.258 606.279 816.387 609.201 820.524C612.124 824.661 613.694 829.602 613.694 834.668C613.694 839.733 612.124 844.674 609.201 848.811C606.279 852.948 602.146 856.078 597.371 857.77L345.189 1004.45C333.59 1010.58 320.627 1013.67 307.51 1013.43ZM306.14 660.85C293.849 660.619 281.7 663.499 270.821 669.223L18.6379 815.904C14.5856 817.175 11.0448 819.706 8.53088 823.128C6.01695 826.551 4.66127 830.687 4.66127 834.934C4.66127 839.181 6.01695 843.317 8.53088 846.739C11.0448 850.162 14.5856 852.693 18.6379 853.964L272.191 1000.72C283.135 1006.28 295.236 1009.17 307.51 1009.17C319.784 1009.17 331.885 1006.28 342.829 1000.72L595.012 854.116C599.025 852.805 602.522 850.259 605.001 846.841C607.48 843.423 608.815 839.309 608.815 835.086C608.815 830.864 607.48 826.75 605.001 823.332C602.522 819.914 599.025 817.368 595.012 816.057L341.535 669.679C330.673 663.791 318.495 660.753 306.14 660.85Z" fill="#03A7D3"/>
    <path d="M612.593 754.629V632.838L459.061 653.314L344.045 586.938C332.722 581.194 320.204 578.201 307.508 578.201C294.811 578.201 282.294 581.194 270.971 586.938L253.083 598.28L3.71631 631.544V755.618C4.29537 760.037 5.99932 764.234 8.66493 767.806C11.3305 771.378 14.8685 774.205 18.9401 776.018L272.493 922.395C283.802 928.139 296.308 931.132 308.992 931.132C321.676 931.132 334.182 928.139 345.491 922.395L597.674 775.714C601.744 773.92 605.283 771.107 607.95 767.547C610.616 763.987 612.32 759.8 612.898 755.39L612.593 754.629Z" fill="url(#paint0_linear_6063_13479)"/>
    <path d="M597.445 611.144L343.969 464.767C332.646 459.023 320.128 456.03 307.431 456.03C294.735 456.03 282.217 459.023 270.894 464.767L18.7117 611.373C-1.45988 623.019 -1.45988 641.82 18.7117 653.543L272.264 799.92C283.574 805.663 296.079 808.656 308.764 808.656C321.448 808.656 333.953 805.663 345.263 799.92L597.445 653.314C617.617 641.668 617.617 622.791 597.445 611.144Z" fill="url(#paint1_radial_6063_13479)"/>
    <path d="M597.445 645.931L345.262 792.536C333.953 798.279 321.448 801.272 308.763 801.272C296.079 801.272 283.574 798.279 272.264 792.536L18.7113 646.235C15.191 644.502 12.068 642.059 9.53948 639.059C7.01093 636.058 5.13174 632.567 4.02033 628.804C2.11735 637.634 6.98892 646.768 18.7113 653.542L272.264 799.919C283.574 805.663 296.079 808.656 308.763 808.656C321.448 808.656 333.953 805.663 345.262 799.919L597.445 653.314C609.167 646.54 614.039 637.329 612.136 628.499C611.046 632.272 609.175 635.774 606.644 638.777C604.113 641.78 600.979 644.217 597.445 645.931Z" fill="white"/>
    <path d="M510.063 756.836L498.112 763.763V749.909L510.063 742.982V756.836Z" fill="white"/>
    <path d="M579.251 716.95L567.224 723.876V710.023L579.251 703.096V716.95Z" fill="white"/>
    <path opacity="0.4" d="M293.731 738.111L123.148 639.613C116.222 635.654 117.135 628.651 125.128 624.389L291.828 528.174C295.94 525.915 300.518 524.636 305.206 524.438C309.893 524.24 314.563 525.128 318.851 527.032L489.434 625.531C496.36 629.489 495.447 636.492 487.454 640.754L320.83 736.969C316.708 739.241 312.116 740.526 307.415 740.724C302.713 740.922 298.029 740.028 293.731 738.111Z" fill="#06033E"/>
    <path d="M226.67 844.677L85.9254 763.458C84.0759 762.123 82.5629 760.375 81.5059 758.354C80.449 756.332 79.8771 754.093 79.8359 751.812V741.384C79.8359 736.893 82.5761 734.837 85.9254 736.74L226.67 818.036C228.518 819.355 230.031 821.088 231.089 823.097C232.146 825.107 232.718 827.336 232.759 829.606V840.11C232.759 844.601 230.019 846.656 226.67 844.677Z" fill="white"/>
    <path d="M612.593 526.652V404.861L459.061 425.337L344.045 358.962C332.722 353.218 320.204 350.224 307.508 350.224C294.811 350.224 282.294 353.218 270.971 358.962L253.083 370.303L3.71631 403.643V527.337C4.29537 531.756 5.99932 535.953 8.66493 539.525C11.3305 543.096 14.8685 545.924 18.9401 547.737L272.493 694.114C283.802 699.857 296.308 702.851 308.992 702.851C321.676 702.851 334.182 699.857 345.491 694.114L597.674 547.509C601.745 545.696 605.283 542.868 607.949 539.296C610.615 535.724 612.319 531.528 612.898 527.109L612.593 526.652Z" fill="url(#paint2_linear_6063_13479)"/>
    <path d="M597.445 383.091L343.969 236.714C332.646 230.97 320.128 227.977 307.431 227.977C294.735 227.977 282.217 230.97 270.894 236.714L18.7117 383.396C-1.45988 395.042 -1.45988 413.843 18.7117 425.566L272.264 571.867C283.574 577.61 296.079 580.603 308.764 580.603C321.448 580.603 333.953 577.61 345.263 571.867L597.445 425.261C617.617 413.615 617.617 394.737 597.445 383.091Z" fill="url(#paint3_radial_6063_13479)"/>
    <path opacity="0.4" d="M476.722 391.769L328.975 306.515C322.38 303.178 315.091 301.438 307.7 301.438C300.308 301.438 293.02 303.178 286.424 306.515L139.514 391.769C127.716 398.619 127.716 409.58 139.514 416.355L287.033 501.989C293.629 505.327 300.917 507.066 308.309 507.066C315.7 507.066 322.988 505.327 329.584 501.989L476.57 416.507C488.444 409.733 488.444 398.772 476.722 391.769Z" fill="#06033E"/>
    <path d="M597.445 417.878L345.262 564.559C333.953 570.302 321.448 573.296 308.763 573.296C296.079 573.296 283.574 570.302 272.264 564.559L18.7113 418.182C15.1774 416.469 12.0432 414.032 9.5123 411.029C6.98137 408.025 5.11031 404.524 4.02033 400.751C2.11735 409.581 6.98892 418.791 18.7113 425.566L272.264 571.867C283.574 577.61 296.079 580.603 308.763 580.603C321.448 580.603 333.953 577.61 345.262 571.867L597.445 425.261C609.167 418.487 614.039 409.276 612.136 400.522C611.032 404.28 609.155 407.764 606.625 410.753C604.095 413.742 600.968 416.169 597.445 417.878Z" fill="white"/>
    <path d="M379.364 604.293L367.337 611.296V597.367L379.364 590.44V604.293Z" fill="white"/>
    <path d="M404.483 589.831L392.456 596.757V582.904L404.483 575.977V589.831Z" fill="white"/>
    <path d="M429.528 575.368L417.577 582.295V568.441L429.528 561.438V575.368Z" fill="white"/>
    <path d="M409.051 615.255L397.024 622.181V608.328L409.051 601.401V615.255Z" fill="white"/>
    <path d="M431.124 602.466L419.097 609.393V595.616L431.124 588.689V602.466Z" fill="white"/>
    <path d="M510.063 528.859L498.112 535.786V521.932L510.063 515.005V528.859Z" fill="white"/>
    <path d="M579.251 488.897L567.224 495.824V481.97L579.251 475.043V488.897Z" fill="white"/>
    <path d="M454.646 560.829L442.695 567.756V553.902L454.646 546.976V560.829Z" fill="white"/>
    <path d="M612.593 298.599V176.808L459.061 197.36L344.045 130.908C332.722 125.165 320.204 122.171 307.508 122.171C294.811 122.171 282.294 125.165 270.971 130.908L253.083 142.326L3.71631 175.59V299.588C4.29012 304.019 5.99111 308.228 8.65657 311.813C11.322 315.398 14.8628 318.239 18.9401 320.064L272.265 466.365C283.574 472.109 296.079 475.102 308.764 475.102C321.448 475.102 333.953 472.109 345.263 466.365L597.445 319.684C601.515 317.89 605.055 315.077 607.721 311.517C610.388 307.958 612.092 303.77 612.669 299.36L612.593 298.599Z" fill="url(#paint4_linear_6063_13479)"/>
    <path d="M597.445 155.038L343.969 8.73742C332.646 2.99346 320.128 0 307.431 0C294.735 0 282.217 2.99346 270.894 8.73742L18.7117 155.343C-1.45988 166.989 -1.45988 185.79 18.7117 197.513L272.264 343.89C283.574 349.633 296.079 352.626 308.764 352.626C321.448 352.626 333.953 349.633 345.263 343.89L597.445 197.208C617.617 185.562 617.617 166.685 597.445 155.038Z" fill="url(#paint5_radial_6063_13479)"/>
    <path d="M597.445 155.038L343.969 8.73742C332.646 2.99346 320.128 0 307.431 0C294.735 0 282.217 2.99346 270.894 8.73742L18.7117 155.343C-1.45988 166.989 -1.45988 185.79 18.7117 197.513L272.264 343.89C283.574 349.633 296.079 352.626 308.764 352.626C321.448 352.626 333.953 349.633 345.263 343.89L597.445 197.208C617.617 185.562 617.617 166.685 597.445 155.038Z" fill="url(#paint6_radial_6063_13479)"/>
    <path d="M308.497 296.468C299.496 296.611 290.609 294.435 282.692 290.15L114.697 193.174C111.272 191.891 108.32 189.592 106.236 186.586C104.152 183.58 103.036 180.009 103.036 176.352C103.036 172.694 104.152 169.123 106.236 166.117C108.32 163.111 111.272 160.813 114.697 159.529L281.779 62.4013C289.769 58.276 298.63 56.1234 307.621 56.1234C316.613 56.1234 325.474 58.276 333.464 62.4013L501.459 159.377C504.884 160.66 507.836 162.959 509.92 165.965C512.004 168.971 513.121 172.542 513.121 176.199C513.121 179.857 512.004 183.428 509.92 186.434C507.836 189.44 504.884 191.738 501.459 193.022L334.377 290.15C326.437 294.445 317.523 296.621 308.497 296.468ZM307.659 62.7058C299.71 62.5223 291.847 64.3832 284.824 68.1102L118.047 165.238C115.638 165.936 113.522 167.397 112.016 169.401C110.51 171.405 109.695 173.844 109.695 176.352C109.695 178.859 110.51 181.298 112.016 183.302C113.522 185.307 115.638 186.768 118.047 187.465L286.042 284.517C293.042 288.044 300.772 289.881 308.611 289.881C316.45 289.881 324.18 288.044 331.18 284.517L498.262 187.313C500.67 186.615 502.786 185.154 504.293 183.15C505.799 181.146 506.613 178.707 506.613 176.199C506.613 173.692 505.799 171.253 504.293 169.249C502.786 167.244 500.67 165.783 498.262 165.086L330.191 68.1102C323.26 64.4274 315.507 62.5677 307.659 62.7058Z" fill="#8B1E64"/>
    <path d="M597.445 189.901L345.262 336.506C333.953 342.249 321.448 345.243 308.763 345.243C296.079 345.243 283.574 342.249 272.264 336.506L18.7113 190.129C15.188 188.42 12.0611 185.993 9.53111 183.005C7.00113 180.016 5.12403 176.531 4.02033 172.774C2.11735 181.528 6.98892 190.738 18.7113 197.513L272.264 343.89C283.574 349.633 296.079 352.626 308.763 352.626C321.448 352.626 333.953 349.633 345.262 343.89L597.445 197.208C609.167 190.51 614.039 181.299 612.136 172.469C611.046 176.242 609.175 179.744 606.644 182.747C604.113 185.75 600.979 188.187 597.445 189.901Z" fill="white"/>
    <path d="M379.364 376.317L367.337 383.243V369.39L379.364 362.463V376.317Z" fill="white"/>
    <path d="M404.483 361.778L392.456 368.705V354.851L404.483 347.924V361.778Z" fill="white"/>
    <path d="M429.528 347.315L417.577 354.242V340.388L429.528 333.462V347.315Z" fill="white"/>
    <path d="M409.051 387.202L397.024 394.205V380.351L409.051 373.348V387.202Z" fill="white"/>
    <path d="M431.124 374.49L419.097 381.417V367.563L431.124 360.636V374.49Z" fill="white"/>
    <path d="M510.063 300.807L498.112 307.733V293.88L510.063 286.953V300.807Z" fill="white"/>
    <path d="M579.251 260.844L567.224 267.847V253.993L579.251 246.99V260.844Z" fill="white"/>
    <path d="M454.646 332.776L442.695 339.779V325.925L454.646 318.922V332.776Z" fill="white"/>
    </g>
    <defs>
    <linearGradient id="paint0_linear_6063_13479" x1="-33.0492" y1="754.781" x2="396.415" y2="754.781" gradientUnits="userSpaceOnUse">
    <stop stop-color="#01C8EF"/>
    <stop offset="0.13" stop-color="#04B1DD"/>
    <stop offset="0.55" stop-color="#0E6BA7"/>
    <stop offset="0.85" stop-color="#154085"/>
    <stop offset="1" stop-color="#172F78"/>
    </linearGradient>
    <radialGradient id="paint1_radial_6063_13479" cx="0" cy="0" r="1" gradientUnits="userSpaceOnUse" gradientTransform="translate(-109.168 432.797) scale(959.025 959.024)">
    <stop stop-color="#01C8EF"/>
    <stop offset="0.14" stop-color="#03BAE4"/>
    <stop offset="0.4" stop-color="#0895C8"/>
    <stop offset="0.76" stop-color="#115A9A"/>
    <stop offset="1" stop-color="#172F78"/>
    </radialGradient>
    <linearGradient id="paint2_linear_6063_13479" x1="-33.0492" y1="526.804" x2="396.415" y2="526.804" gradientUnits="userSpaceOnUse">
    <stop stop-color="#01C8EF"/>
    <stop offset="0.13" stop-color="#04B1DD"/>
    <stop offset="0.55" stop-color="#0E6BA7"/>
    <stop offset="0.85" stop-color="#154085"/>
    <stop offset="1" stop-color="#172F78"/>
    </linearGradient>
    <radialGradient id="paint3_radial_6063_13479" cx="0" cy="0" r="1" gradientUnits="userSpaceOnUse" gradientTransform="translate(-109.168 204.744) scale(959.025 959.024)">
    <stop stop-color="#01C8EF"/>
    <stop offset="0.14" stop-color="#03BAE4"/>
    <stop offset="0.4" stop-color="#0895C8"/>
    <stop offset="0.76" stop-color="#115A9A"/>
    <stop offset="1" stop-color="#172F78"/>
    </radialGradient>
    <linearGradient id="paint4_linear_6063_13479" x1="-33.0492" y1="298.751" x2="396.415" y2="298.751" gradientUnits="userSpaceOnUse">
    <stop stop-color="#01C8EF"/>
    <stop offset="0.13" stop-color="#04B1DD"/>
    <stop offset="0.55" stop-color="#0E6BA7"/>
    <stop offset="0.85" stop-color="#154085"/>
    <stop offset="1" stop-color="#172F78"/>
    </linearGradient>
    <radialGradient id="paint5_radial_6063_13479" cx="0" cy="0" r="1" gradientUnits="userSpaceOnUse" gradientTransform="translate(-109.168 -23.3087) scale(959.025 959.025)">
    <stop stop-color="#01C8EF"/>
    <stop offset="0.14" stop-color="#03BAE4"/>
    <stop offset="0.4" stop-color="#0895C8"/>
    <stop offset="0.76" stop-color="#115A9A"/>
    <stop offset="1" stop-color="#172F78"/>
    </radialGradient>
    <radialGradient id="paint6_radial_6063_13479" cx="0" cy="0" r="1" gradientUnits="userSpaceOnUse" gradientTransform="translate(-24.524 34.5418) scale(659.344 659.344)">
    <stop stop-color="#F9636B"/>
    <stop offset="1" stop-color="#B6246E"/>
    </radialGradient>
    </defs>
    </svg>
    