<svg width="49" height="48" viewBox="0 0 49 48" fill="none" xmlns="http://www.w3.org/2000/svg">
    <path d="M42.5 4C42.5 2.89543 41.6046 2 40.5 2C39.3954 2 38.5 2.89543 38.5 4V7.17157L25.3734 20.2982C25.0892 19.5398 24.3576 19 23.5 19C22.3954 19 21.5 19.8954 21.5 21V25C21.5 26.1046 22.3954 27 23.5 27H27.5C28.6046 27 29.5 26.1046 29.5 25C29.5 24.1424 28.9602 23.4108 28.2018 23.1266L41.3284 10H44.5C45.6046 10 46.5 9.10457 46.5 8C46.5 6.89543 45.6046 6 44.5 6H42.5V4Z" fill="white"/>
    <path d="M24.5 4C28.5763 4 32.3678 5.21951 35.5296 7.31359L31.1604 11.6828C29.1797 10.6095 26.911 10 24.5 10C16.768 10 10.5 16.268 10.5 24C10.5 31.732 16.768 38 24.5 38C32.232 38 38.5 31.732 38.5 24C38.5 21.589 37.8905 19.3203 36.8172 17.3396L41.1864 12.9704C43.2805 16.1322 44.5 19.9237 44.5 24C44.5 35.0457 35.5457 44 24.5 44C13.4543 44 4.5 35.0457 4.5 24C4.5 12.9543 13.4543 4 24.5 4Z" fill="white"/>
    <path d="M24.5 14C25.7897 14 27.0224 14.2442 28.1544 14.6888L25.3765 17.4666C24.8169 17.1688 24.1782 17 23.5 17C21.2909 17 19.5 18.7909 19.5 21V25C19.5 27.2091 21.2909 29 23.5 29H27.5C29.7091 29 31.5 27.2091 31.5 25C31.5 24.3218 31.3312 23.6831 31.0334 23.1235L33.8112 20.3456C34.2558 21.4776 34.5 22.7103 34.5 24C34.5 29.5228 30.0228 34 24.5 34C18.9772 34 14.5 29.5228 14.5 24C14.5 18.4772 18.9772 14 24.5 14Z" fill="white"/>
    </svg>
    