<svg width="48" height="48" viewBox="0 0 48 48" fill="none" xmlns="http://www.w3.org/2000/svg">
    <path fill-rule="evenodd" clip-rule="evenodd" d="M36 8H12C8.68629 8 6 10.6863 6 14V34C6 37.3137 8.68629 40 12 40H36C39.3137 40 42 37.3137 42 34V14C42 10.6863 39.3137 8 36 8ZM12.304 16.94C11.7186 17.8767 12.0033 19.1106 12.94 19.696L18.2264 23L12.94 26.304C12.0033 26.8894 11.7186 28.1233 12.304 29.06C12.8894 29.9967 14.1233 30.2814 15.06 29.696L20.3464 26.392C22.8531 24.8253 22.8531 21.1747 20.3464 19.608L15.06 16.304C14.1233 15.7186 12.8894 16.0033 12.304 16.94ZM26 26C24.8954 26 24 26.8954 24 28C24 29.1046 24.8954 30 26 30H34C35.1046 30 36 29.1046 36 28C36 26.8954 35.1046 26 34 26H26Z" fill="white"/>
    </svg>
    