<svg width="20" height="20" viewBox="0 0 20 20" fill="none" xmlns="http://www.w3.org/2000/svg">
<g id="Icon">
<path id="Combined Shape" fill-rule="evenodd" clip-rule="evenodd" d="M0.833496 10.0002C0.833496 4.93755 4.93755 0.833496 10.0002 0.833496C15.0627 0.833496 19.1668 4.93755 19.1668 10.0002C19.1668 15.0627 15.0627 19.1668 10.0002 19.1668C4.93755 19.1668 0.833496 15.0627 0.833496 10.0002ZM4.09015 14.6182C3.09395 13.3452 2.50016 11.742 2.50016 10.0002C2.50016 5.85803 5.85803 2.50016 10.0002 2.50016C14.1423 2.50016 17.5002 5.85803 17.5002 10.0002C17.5002 11.7105 16.9277 13.2871 15.9639 14.5487C14.5912 12.7944 12.4542 11.6668 10.0539 11.6668C7.62205 11.6668 5.46054 12.8242 4.09015 14.6182ZM5.27322 15.8233C6.5632 16.8717 8.2083 17.5002 10.0002 17.5002C11.8236 17.5002 13.4951 16.8494 14.795 15.7676C13.7362 14.2936 12.0072 13.3335 10.0539 13.3335C8.07605 13.3335 6.3281 14.3178 5.27322 15.8233ZM10.0002 10.8335C11.8411 10.8335 13.3335 9.34108 13.3335 7.50016C13.3335 5.65921 11.8411 4.16683 10.0002 4.16683C8.15921 4.16683 6.66683 5.65921 6.66683 7.50016C6.66683 9.34108 8.15921 10.8335 10.0002 10.8335ZM10.0002 9.16683C10.9207 9.16683 11.6668 8.42066 11.6668 7.50016C11.6668 6.57969 10.9207 5.8335 10.0002 5.8335C9.07966 5.8335 8.3335 6.57969 8.3335 7.50016C8.3335 8.42066 9.07966 9.16683 10.0002 9.16683Z" fill="white"/>
</g>
</svg>
